<mxfile host="app.diagrams.net" agent="Mozilla/5.0 (X11; Linux x86_64) AppleWebKit/537.36 (KHTML, like Gecko) Chrome/139.0.0.0 Safari/537.36" version="28.1.0">
  <diagram name="casi-uso-operatori" id="XoQh6j7rYv88GrGm538-">
    <mxGraphModel dx="1426" dy="825" grid="1" gridSize="10" guides="1" tooltips="1" connect="1" arrows="1" fold="1" page="1" pageScale="1" pageWidth="827" pageHeight="1169" math="0" shadow="0">
      <root>
        <mxCell id="0" />
        <mxCell id="1" parent="0" />
        <mxCell id="2iyyV_jV9DMABTMc6lRs-2" value="Punto vendita&lt;div&gt;&lt;br&gt;&lt;/div&gt;" style="shape=umlActor;verticalLabelPosition=bottom;verticalAlign=top;html=1;" vertex="1" parent="1">
          <mxGeometry x="140" y="225" width="30" height="60" as="geometry" />
        </mxCell>
        <mxCell id="2iyyV_jV9DMABTMc6lRs-5" value="Azienda produttrice&lt;div&gt;&lt;br&gt;&lt;/div&gt;" style="shape=umlActor;verticalLabelPosition=bottom;verticalAlign=top;html=1;" vertex="1" parent="1">
          <mxGeometry x="140" y="555" width="30" height="60" as="geometry" />
        </mxCell>
        <mxCell id="2iyyV_jV9DMABTMc6lRs-7" value="Amministrazione&lt;div&gt;&lt;br&gt;&lt;/div&gt;" style="shape=umlActor;verticalLabelPosition=bottom;verticalAlign=top;html=1;" vertex="1" parent="1">
          <mxGeometry x="140" y="885" width="30" height="60" as="geometry" />
        </mxCell>
        <mxCell id="2iyyV_jV9DMABTMc6lRs-9" value="Gestisci prezzi" style="ellipse;whiteSpace=wrap;html=1;fillColor=#e1d5e7;strokeColor=#9673a6;" vertex="1" parent="1">
          <mxGeometry x="344" y="110" width="140" height="70" as="geometry" />
        </mxCell>
        <mxCell id="2iyyV_jV9DMABTMc6lRs-32" value="" style="edgeStyle=orthogonalEdgeStyle;rounded=0;orthogonalLoop=1;jettySize=auto;html=1;dashed=1;strokeWidth=2;" edge="1" parent="1" source="2iyyV_jV9DMABTMc6lRs-11" target="2iyyV_jV9DMABTMc6lRs-9">
          <mxGeometry relative="1" as="geometry" />
        </mxCell>
        <mxCell id="2iyyV_jV9DMABTMc6lRs-33" value="&lt;font style=&quot;font-size: 12px;&quot;&gt;«include»&lt;/font&gt;" style="edgeLabel;html=1;align=center;verticalAlign=middle;resizable=0;points=[];" vertex="1" connectable="0" parent="2iyyV_jV9DMABTMc6lRs-32">
          <mxGeometry x="-0.2" y="-2" relative="1" as="geometry">
            <mxPoint x="34" y="-14" as="offset" />
          </mxGeometry>
        </mxCell>
        <mxCell id="2iyyV_jV9DMABTMc6lRs-11" value="Pubblica offerte/volantini&amp;nbsp;" style="ellipse;whiteSpace=wrap;html=1;fillColor=#e1d5e7;strokeColor=#9673a6;" vertex="1" parent="1">
          <mxGeometry x="344" y="220" width="140" height="70" as="geometry" />
        </mxCell>
        <mxCell id="2iyyV_jV9DMABTMc6lRs-12" value="Login/Autenticazione" style="ellipse;whiteSpace=wrap;html=1;fillColor=#e1d5e7;strokeColor=#9673a6;" vertex="1" parent="1">
          <mxGeometry x="344" y="330" width="140" height="70" as="geometry" />
        </mxCell>
        <mxCell id="2iyyV_jV9DMABTMc6lRs-35" value="" style="edgeStyle=orthogonalEdgeStyle;rounded=0;orthogonalLoop=1;jettySize=auto;html=1;dashed=1;strokeWidth=2;" edge="1" parent="1" source="2iyyV_jV9DMABTMc6lRs-13" target="2iyyV_jV9DMABTMc6lRs-14">
          <mxGeometry relative="1" as="geometry" />
        </mxCell>
        <mxCell id="2iyyV_jV9DMABTMc6lRs-36" value="&lt;font style=&quot;font-size: 12px;&quot;&gt;«include»&lt;/font&gt;" style="edgeLabel;html=1;align=center;verticalAlign=middle;resizable=0;points=[];" vertex="1" connectable="0" parent="2iyyV_jV9DMABTMc6lRs-35">
          <mxGeometry x="-0.3086" y="-2" relative="1" as="geometry">
            <mxPoint x="38" y="16" as="offset" />
          </mxGeometry>
        </mxCell>
        <mxCell id="2iyyV_jV9DMABTMc6lRs-13" value="Gestisci prodotti " style="ellipse;whiteSpace=wrap;html=1;fillColor=#dae8fc;strokeColor=#6c8ebf;" vertex="1" parent="1">
          <mxGeometry x="344" y="440" width="140" height="70" as="geometry" />
        </mxCell>
        <mxCell id="2iyyV_jV9DMABTMc6lRs-14" value="Carica immagini prodotto" style="ellipse;whiteSpace=wrap;html=1;fillColor=#dae8fc;strokeColor=#6c8ebf;" vertex="1" parent="1">
          <mxGeometry x="344" y="549.5" width="140" height="70" as="geometry" />
        </mxCell>
        <mxCell id="2iyyV_jV9DMABTMc6lRs-15" value="Blocca modifiche metadati" style="ellipse;whiteSpace=wrap;html=1;fillColor=#dae8fc;strokeColor=#6c8ebf;" vertex="1" parent="1">
          <mxGeometry x="344" y="660" width="140" height="70" as="geometry" />
        </mxCell>
        <mxCell id="2iyyV_jV9DMABTMc6lRs-16" value="Moderazione e qualità dati" style="ellipse;whiteSpace=wrap;html=1;fillColor=#ffe6cc;strokeColor=#d79b00;" vertex="1" parent="1">
          <mxGeometry x="344" y="770" width="140" height="70" as="geometry" />
        </mxCell>
        <mxCell id="2iyyV_jV9DMABTMc6lRs-18" value="Gestione ruoli e accessi&amp;nbsp;" style="ellipse;whiteSpace=wrap;html=1;fillColor=#ffe6cc;strokeColor=#d79b00;" vertex="1" parent="1">
          <mxGeometry x="344" y="880" width="140" height="70" as="geometry" />
        </mxCell>
        <mxCell id="2iyyV_jV9DMABTMc6lRs-19" value="Audit e log modifiche" style="ellipse;whiteSpace=wrap;html=1;fillColor=#ffe6cc;strokeColor=#d79b00;" vertex="1" parent="1">
          <mxGeometry x="344" y="990" width="140" height="70" as="geometry" />
        </mxCell>
        <mxCell id="2iyyV_jV9DMABTMc6lRs-21" value="" style="endArrow=none;html=1;rounded=0;entryX=0;entryY=0.5;entryDx=0;entryDy=0;" edge="1" parent="1" target="2iyyV_jV9DMABTMc6lRs-9">
          <mxGeometry width="50" height="50" relative="1" as="geometry">
            <mxPoint x="200" y="260" as="sourcePoint" />
            <mxPoint x="380" y="410" as="targetPoint" />
          </mxGeometry>
        </mxCell>
        <mxCell id="2iyyV_jV9DMABTMc6lRs-22" value="" style="endArrow=none;html=1;rounded=0;entryX=0;entryY=0.5;entryDx=0;entryDy=0;" edge="1" parent="1" target="2iyyV_jV9DMABTMc6lRs-11">
          <mxGeometry width="50" height="50" relative="1" as="geometry">
            <mxPoint x="200" y="260" as="sourcePoint" />
            <mxPoint x="370" y="200" as="targetPoint" />
          </mxGeometry>
        </mxCell>
        <mxCell id="2iyyV_jV9DMABTMc6lRs-23" value="" style="endArrow=none;html=1;rounded=0;entryX=0;entryY=0.5;entryDx=0;entryDy=0;" edge="1" parent="1" target="2iyyV_jV9DMABTMc6lRs-12">
          <mxGeometry width="50" height="50" relative="1" as="geometry">
            <mxPoint x="200" y="260" as="sourcePoint" />
            <mxPoint x="380" y="350" as="targetPoint" />
          </mxGeometry>
        </mxCell>
        <mxCell id="2iyyV_jV9DMABTMc6lRs-24" value="" style="endArrow=none;html=1;rounded=0;entryX=0;entryY=0.5;entryDx=0;entryDy=0;" edge="1" parent="1" target="2iyyV_jV9DMABTMc6lRs-13">
          <mxGeometry width="50" height="50" relative="1" as="geometry">
            <mxPoint x="200" y="580" as="sourcePoint" />
            <mxPoint x="410" y="640" as="targetPoint" />
          </mxGeometry>
        </mxCell>
        <mxCell id="2iyyV_jV9DMABTMc6lRs-25" value="" style="endArrow=none;html=1;rounded=0;entryX=0;entryY=0.5;entryDx=0;entryDy=0;" edge="1" parent="1" target="2iyyV_jV9DMABTMc6lRs-14">
          <mxGeometry width="50" height="50" relative="1" as="geometry">
            <mxPoint x="200" y="580" as="sourcePoint" />
            <mxPoint x="380" y="650" as="targetPoint" />
          </mxGeometry>
        </mxCell>
        <mxCell id="2iyyV_jV9DMABTMc6lRs-26" value="" style="endArrow=none;html=1;rounded=0;entryX=0;entryY=0.5;entryDx=0;entryDy=0;" edge="1" parent="1" target="2iyyV_jV9DMABTMc6lRs-15">
          <mxGeometry width="50" height="50" relative="1" as="geometry">
            <mxPoint x="200" y="580" as="sourcePoint" />
            <mxPoint x="440" y="670" as="targetPoint" />
          </mxGeometry>
        </mxCell>
        <mxCell id="2iyyV_jV9DMABTMc6lRs-27" value="" style="endArrow=none;html=1;rounded=0;entryX=0;entryY=0.5;entryDx=0;entryDy=0;" edge="1" parent="1" target="2iyyV_jV9DMABTMc6lRs-16">
          <mxGeometry width="50" height="50" relative="1" as="geometry">
            <mxPoint x="200" y="910" as="sourcePoint" />
            <mxPoint x="390" y="900" as="targetPoint" />
          </mxGeometry>
        </mxCell>
        <mxCell id="2iyyV_jV9DMABTMc6lRs-28" value="" style="endArrow=none;html=1;rounded=0;entryX=0;entryY=0.5;entryDx=0;entryDy=0;" edge="1" parent="1" target="2iyyV_jV9DMABTMc6lRs-18">
          <mxGeometry width="50" height="50" relative="1" as="geometry">
            <mxPoint x="200" y="910" as="sourcePoint" />
            <mxPoint x="430" y="960" as="targetPoint" />
          </mxGeometry>
        </mxCell>
        <mxCell id="2iyyV_jV9DMABTMc6lRs-29" value="" style="endArrow=none;html=1;rounded=0;entryX=0;entryY=0.5;entryDx=0;entryDy=0;" edge="1" parent="1" target="2iyyV_jV9DMABTMc6lRs-19">
          <mxGeometry width="50" height="50" relative="1" as="geometry">
            <mxPoint x="200" y="910" as="sourcePoint" />
            <mxPoint x="430" y="1060" as="targetPoint" />
          </mxGeometry>
        </mxCell>
        <mxCell id="2iyyV_jV9DMABTMc6lRs-37" value="" style="endArrow=classic;html=1;rounded=0;exitX=1;exitY=0.5;exitDx=0;exitDy=0;entryX=1;entryY=0.5;entryDx=0;entryDy=0;edgeStyle=orthogonalEdgeStyle;curved=1;dashed=1;strokeWidth=2;" edge="1" parent="1" source="2iyyV_jV9DMABTMc6lRs-13" target="2iyyV_jV9DMABTMc6lRs-15">
          <mxGeometry width="50" height="50" relative="1" as="geometry">
            <mxPoint x="200" y="710" as="sourcePoint" />
            <mxPoint x="250" y="660" as="targetPoint" />
            <Array as="points">
              <mxPoint x="530" y="475" />
              <mxPoint x="530" y="695" />
            </Array>
          </mxGeometry>
        </mxCell>
        <mxCell id="2iyyV_jV9DMABTMc6lRs-38" value="&lt;font style=&quot;font-size: 12px;&quot;&gt;«extend»&lt;/font&gt;" style="edgeLabel;html=1;align=center;verticalAlign=middle;resizable=0;points=[];" vertex="1" connectable="0" parent="2iyyV_jV9DMABTMc6lRs-37">
          <mxGeometry x="0.0064" relative="1" as="geometry">
            <mxPoint x="10" y="104" as="offset" />
          </mxGeometry>
        </mxCell>
        <mxCell id="2iyyV_jV9DMABTMc6lRs-40" value="" style="rounded=0;whiteSpace=wrap;html=1;fillColor=none;" vertex="1" parent="1">
          <mxGeometry x="230" y="80" width="370" height="1000" as="geometry" />
        </mxCell>
      </root>
    </mxGraphModel>
  </diagram>
</mxfile>
